<?xml version="1.0" encoding="UTF-8" standalone="no"?>
<svg width="1100" height="1250" viewBox="0 0 1100 1250" xmlns="http://www.w3.org/2000/svg" style="background-color: #ffffff; font-family: 'Segoe UI', 'Arial', sans-serif;">
  <!-- Entity: Gunung -->
  <rect x="160" y="140" width="140" height="45" fill="#f8fafc" stroke="#0f172a" stroke-width="2" rx="4" />
  <text x="230.0" y="167.5" fill="#0f172a" font-size="13" font-weight="bold" text-anchor="middle">Gunung</text>
  <!-- Attributes side: left -->
  <text x="15" y="105" fill="#475569" font-size="11">• id</text>
  <text x="15" y="123" fill="#475569" font-size="11">• nama_gunung</text>
  <text x="15" y="141" fill="#475569" font-size="11">• lokasi</text>
  <text x="15" y="159" fill="#475569" font-size="11">• ketinggian</text>
  <text x="15" y="177" fill="#475569" font-size="11">• deskripsi</text>
  <text x="15" y="195" fill="#475569" font-size="11">• gambar</text>
  <text x="15" y="213" fill="#475569" font-size="11">• created_at</text>
  <text x="15" y="231" fill="#475569" font-size="11">• updated_at</text>
  <!-- Entity: Terminal -->
  <rect x="800" y="140" width="140" height="45" fill="#f8fafc" stroke="#0f172a" stroke-width="2" rx="4" />
  <text x="870.0" y="167.5" fill="#0f172a" font-size="13" font-weight="bold" text-anchor="middle">Terminal</text>
  <!-- Attributes side: right -->
  <text x="960" y="105" fill="#475569" font-size="11">• id</text>
  <text x="960" y="123" fill="#475569" font-size="11">• nama_terminal</text>
  <text x="960" y="141" fill="#475569" font-size="11">• lokasi</text>
  <text x="960" y="159" fill="#475569" font-size="11">• tipe</text>
  <text x="960" y="177" fill="#475569" font-size="11">• created_at</text>
  <text x="960" y="195" fill="#475569" font-size="11">• updated_at</text>
  <!-- Entity: Jalur -->
  <rect x="160" y="460" width="140" height="45" fill="#f8fafc" stroke="#0f172a" stroke-width="2" rx="4" />
  <text x="230.0" y="487.5" fill="#0f172a" font-size="13" font-weight="bold" text-anchor="middle">Jalur</text>
  <!-- Attributes side: left -->
  <text x="15" y="415" fill="#475569" font-size="11">• id</text>
  <text x="15" y="433" fill="#475569" font-size="11">• gunung_id</text>
  <text x="15" y="451" fill="#475569" font-size="11">• nama_jalur</text>
  <text x="15" y="469" fill="#475569" font-size="11">• biaya_simaksi</text>
  <text x="15" y="487" fill="#475569" font-size="11">• estimasi_jam</text>
  <text x="15" y="505" fill="#475569" font-size="11">• tingkat_kesulitan</text>
  <text x="15" y="523" fill="#475569" font-size="11">• created_at</text>
  <text x="15" y="541" fill="#475569" font-size="11">• updated_at</text>
  <!-- Entity: Biaya -->
  <rect x="800" y="460" width="140" height="45" fill="#f8fafc" stroke="#0f172a" stroke-width="2" rx="4" />
  <text x="870.0" y="487.5" fill="#0f172a" font-size="13" font-weight="bold" text-anchor="middle">Biaya</text>
  <!-- Attributes side: right -->
  <text x="960" y="375" fill="#475569" font-size="11">• id</text>
  <text x="960" y="393" fill="#475569" font-size="11">• jalur_id</text>
  <text x="960" y="411" fill="#475569" font-size="11">• start_terminal_id</text>
  <text x="960" y="429" fill="#475569" font-size="11">• end_terminal_id</text>
  <text x="960" y="447" fill="#475569" font-size="11">• nama_armada</text>
  <text x="960" y="465" fill="#475569" font-size="11">• estimasi_perjalanan</text>
  <text x="960" y="483" fill="#475569" font-size="11">• harga_pp</text>
  <text x="960" y="501" fill="#475569" font-size="11">• harga_weekend</text>
  <text x="960" y="519" fill="#475569" font-size="11">• start_date</text>
  <text x="960" y="537" fill="#475569" font-size="11">• end_date</text>
  <text x="960" y="555" fill="#475569" font-size="11">• harga_periode</text>
  <text x="960" y="573" fill="#475569" font-size="11">• created_at</text>
  <text x="960" y="591" fill="#475569" font-size="11">• updated_at</text>
  <!-- Entity: SubCriteria -->
  <rect x="160" y="780" width="140" height="45" fill="#f8fafc" stroke="#0f172a" stroke-width="2" rx="4" />
  <text x="230.0" y="807.5" fill="#0f172a" font-size="13" font-weight="bold" text-anchor="middle">SubCriteria</text>
  <!-- Attributes side: left -->
  <text x="15" y="755" fill="#475569" font-size="11">• id</text>
  <text x="15" y="773" fill="#475569" font-size="11">• kriteria_id</text>
  <text x="15" y="791" fill="#475569" font-size="11">• nama_sub</text>
  <text x="15" y="809" fill="#475569" font-size="11">• bobot</text>
  <text x="15" y="827" fill="#475569" font-size="11">• created_at</text>
  <text x="15" y="845" fill="#475569" font-size="11">• updated_at</text>
  <!-- Entity: User -->
  <rect x="800" y="780" width="140" height="45" fill="#f8fafc" stroke="#0f172a" stroke-width="2" rx="4" />
  <text x="870.0" y="807.5" fill="#0f172a" font-size="13" font-weight="bold" text-anchor="middle">User</text>
  <!-- Attributes side: right -->
  <text x="960" y="755" fill="#475569" font-size="11">• id</text>
  <text x="960" y="773" fill="#475569" font-size="11">• name</text>
  <text x="960" y="791" fill="#475569" font-size="11">• username</text>
  <text x="960" y="809" fill="#475569" font-size="11">• password</text>
  <text x="960" y="827" fill="#475569" font-size="11">• remember_token</text>
  <text x="960" y="845" fill="#475569" font-size="11">• created_at</text>
  <text x="960" y="863" fill="#475569" font-size="11">• updated_at</text>
  <!-- Entity: Kriteria -->
  <rect x="160" y="1100" width="140" height="45" fill="#f8fafc" stroke="#0f172a" stroke-width="2" rx="4" />
  <text x="230.0" y="1127.5" fill="#0f172a" font-size="13" font-weight="bold" text-anchor="middle">Kriteria</text>
  <!-- Attributes side: left -->
  <text x="15" y="1055" fill="#475569" font-size="11">• id</text>
  <text x="15" y="1073" fill="#475569" font-size="11">• kode_kriteria</text>
  <text x="15" y="1091" fill="#475569" font-size="11">• nama_kriteria</text>
  <text x="15" y="1109" fill="#475569" font-size="11">• tipe</text>
  <text x="15" y="1127" fill="#475569" font-size="11">• bobot</text>
  <text x="15" y="1145" fill="#475569" font-size="11">• created_at</text>
  <text x="15" y="1163" fill="#475569" font-size="11">• updated_at</text>
  <!-- Entity: ActivityLog -->
  <rect x="800" y="1100" width="140" height="45" fill="#f8fafc" stroke="#0f172a" stroke-width="2" rx="4" />
  <text x="870.0" y="1127.5" fill="#0f172a" font-size="13" font-weight="bold" text-anchor="middle">ActivityLog</text>
  <!-- Attributes side: right -->
  <text x="960" y="1055" fill="#475569" font-size="11">• id</text>
  <text x="960" y="1073" fill="#475569" font-size="11">• user_id</text>
  <text x="960" y="1091" fill="#475569" font-size="11">• activity</text>
  <text x="960" y="1109" fill="#475569" font-size="11">• created_at</text>
  <text x="960" y="1127" fill="#475569" font-size="11">• updated_at</text>
  <!-- Entity: Penilaian -->
  <rect x="480" y="780" width="140" height="45" fill="#f8fafc" stroke="#0f172a" stroke-width="2" rx="4" />
  <text x="550.0" y="807.5" fill="#0f172a" font-size="13" font-weight="bold" text-anchor="middle">Penilaian</text>
  <!-- Attributes side: right -->
  <text x="640" y="755" fill="#475569" font-size="11">• id</text>
  <text x="640" y="773" fill="#475569" font-size="11">• jalur_id</text>
  <text x="640" y="791" fill="#475569" font-size="11">• biaya_id</text>
  <text x="640" y="809" fill="#475569" font-size="11">• kriteria_id</text>
  <text x="640" y="827" fill="#475569" font-size="11">• nilai</text>
  <text x="640" y="845" fill="#475569" font-size="11">• created_at</text>
  <text x="640" y="863" fill="#475569" font-size="11">• updated_at</text>
  <!-- Relationship: Memiliki -->
  <polygon points="230,275.0 280.0,300 230,325.0 180.0,300" fill="#ffffff" stroke="#0f172a" stroke-width="2" />
  <text x="230" y="304" fill="#0f172a" font-size="11" font-weight="bold" text-anchor="middle">Memiliki</text>
  <line x1="230" y1="185" x2="230" y2="275" stroke="#334155" stroke-width="1.2" />
  <line x1="230" y1="325" x2="230" y2="460" stroke="#334155" stroke-width="1.2" />
  <text x="240" y="205" fill="#0f172a" font-size="12" font-weight="bold">1</text>
  <text x="240" y="440" fill="#0f172a" font-size="12" font-weight="bold">N</text>
  <!-- Relationship: Memiliki -->
  <polygon points="870,275.0 920.0,300 870,325.0 820.0,300" fill="#ffffff" stroke="#0f172a" stroke-width="2" />
  <text x="870" y="304" fill="#0f172a" font-size="11" font-weight="bold" text-anchor="middle">Memiliki</text>
  <line x1="870" y1="185" x2="870" y2="275" stroke="#334155" stroke-width="1.2" />
  <line x1="870" y1="325" x2="870" y2="460" stroke="#334155" stroke-width="1.2" />
  <text x="880" y="205" fill="#0f172a" font-size="12" font-weight="bold">1</text>
  <text x="880" y="440" fill="#0f172a" font-size="12" font-weight="bold">N</text>
  <!-- Relationship: Memiliki -->
  <polygon points="870,915.0 920.0,940 870,965.0 820.0,940" fill="#ffffff" stroke="#0f172a" stroke-width="2" />
  <text x="870" y="944" fill="#0f172a" font-size="11" font-weight="bold" text-anchor="middle">Memiliki</text>
  <line x1="870" y1="825" x2="870" y2="915" stroke="#334155" stroke-width="1.2" />
  <line x1="870" y1="965" x2="870" y2="1100" stroke="#334155" stroke-width="1.2" />
  <text x="880" y="845" fill="#0f172a" font-size="12" font-weight="bold">1</text>
  <text x="880" y="1080" fill="#0f172a" font-size="12" font-weight="bold">N</text>
  <!-- Relationship: Memiliki -->
  <polygon points="230,915.0 280.0,940 230,965.0 180.0,940" fill="#ffffff" stroke="#0f172a" stroke-width="2" />
  <text x="230" y="944" fill="#0f172a" font-size="11" font-weight="bold" text-anchor="middle">Memiliki</text>
  <line x1="230" y1="825" x2="230" y2="915" stroke="#334155" stroke-width="1.2" />
  <line x1="230" y1="965" x2="230" y2="1100" stroke="#334155" stroke-width="1.2" />
  <text x="280" y="845" fill="#0f172a" font-size="12" font-weight="bold">N</text>
  <text x="240" y="845" fill="#0f172a" font-size="12" font-weight="bold">N</text>
  <text x="240" y="1080" fill="#0f172a" font-size="12" font-weight="bold">1</text>
  <!-- Relationship: Memiliki -->
  <polygon points="550,457.0 600.0,482 550,507.0 500.0,482" fill="#ffffff" stroke="#0f172a" stroke-width="2" />
  <text x="550" y="486" fill="#0f172a" font-size="11" font-weight="bold" text-anchor="middle">Memiliki</text>
  <line x1="300" y1="482" x2="500" y2="482" stroke="#334155" stroke-width="1.2" />
  <line x1="600" y1="482" x2="800" y2="482" stroke="#334155" stroke-width="1.2" />
  <text x="315" y="470" fill="#0f172a" font-size="12" font-weight="bold">1</text>
  <text x="780" y="470" fill="#0f172a" font-size="12" font-weight="bold">N</text>
  <!-- Relationship: Memiliki -->
  <polygon points="350,595.0 400.0,620 350,645.0 300.0,620" fill="#ffffff" stroke="#0f172a" stroke-width="2" />
  <text x="350" y="624" fill="#0f172a" font-size="11" font-weight="bold" text-anchor="middle">Memiliki</text>
  <line x1="230" y1="505" x2="230" y2="620" stroke="#334155" stroke-width="1.2" />
  <line x1="230" y1="620" x2="300" y2="620" stroke="#334155" stroke-width="1.2" />
  <line x1="400" y1="620" x2="550" y2="620" stroke="#334155" stroke-width="1.2" />
  <line x1="550" y1="620" x2="550" y2="780" stroke="#334155" stroke-width="1.2" />
  <text x="240" y="535" fill="#0f172a" font-size="12" font-weight="bold">1</text>
  <text x="560" y="755" fill="#0f172a" font-size="12" font-weight="bold">N</text>
  <!-- Relationship: Memiliki -->
  <polygon points="750,595.0 800.0,620 750,645.0 700.0,620" fill="#ffffff" stroke="#0f172a" stroke-width="2" />
  <text x="750" y="624" fill="#0f172a" font-size="11" font-weight="bold" text-anchor="middle">Memiliki</text>
  <line x1="870" y1="505" x2="870" y2="620" stroke="#334155" stroke-width="1.2" />
  <line x1="870" y1="620" x2="800" y2="620" stroke="#334155" stroke-width="1.2" />
  <line x1="700" y1="620" x2="550" y2="620" stroke="#334155" stroke-width="1.2" />
  <text x="850" y="535" fill="#0f172a" font-size="12" font-weight="bold">1</text>
  <text x="535" y="755" fill="#0f172a" font-size="12" font-weight="bold">N</text>
  <!-- Relationship: Memiliki -->
  <polygon points="350,915.0 400.0,940 350,965.0 300.0,940" fill="#ffffff" stroke="#0f172a" stroke-width="2" />
  <text x="350" y="944" fill="#0f172a" font-size="11" font-weight="bold" text-anchor="middle">Memiliki</text>
  <line x1="300" y1="1122" x2="350" y2="1122" stroke="#334155" stroke-width="1.2" />
  <line x1="350" y1="1122" x2="350" y2="965" stroke="#334155" stroke-width="1.2" />
  <line x1="350" y1="915" x2="350" y2="802" stroke="#334155" stroke-width="1.2" />
  <line x1="350" y1="802" x2="480" y2="802" stroke="#334155" stroke-width="1.2" />
  <text x="315" y="1110" fill="#0f172a" font-size="12" font-weight="bold">1</text>
  <text x="460" y="790" fill="#0f172a" font-size="12" font-weight="bold">N</text>
</svg>