<?xml version="1.0" encoding="UTF-8" standalone="no"?>
<svg width="1060" height="1500" viewBox="0 0 1060 1500" xmlns="http://www.w3.org/2000/svg" style="background-color: #ffffff; font-family: 'Segoe UI', 'Arial', sans-serif;">
  <!-- Entity: Gunung -->
  <rect x="200" y="140" width="140" height="45" fill="#f8fafc" stroke="#0f172a" stroke-width="2" rx="4" />
  <text x="270.0" y="167.5" fill="#0f172a" font-size="15" font-weight="bold" text-anchor="middle">Gunung</text>
  <!-- Attributes side: left -->
  <text x="40" y="89" fill="#0f172a" font-size="14">• id</text>
  <text x="40" y="111" fill="#0f172a" font-size="14">• user_id (FK)</text>
  <text x="40" y="133" fill="#0f172a" font-size="14">• nama_gunung</text>
  <text x="40" y="155" fill="#0f172a" font-size="14">• lokasi</text>
  <text x="40" y="177" fill="#0f172a" font-size="14">• ketinggian</text>
  <text x="40" y="199" fill="#0f172a" font-size="14">• deskripsi</text>
  <text x="40" y="221" fill="#0f172a" font-size="14">• gambar</text>
  <text x="40" y="243" fill="#0f172a" font-size="14">• created_at</text>
  <text x="40" y="265" fill="#0f172a" font-size="14">• updated_at</text>
  
  <!-- Entity: Terminal -->
  <rect x="760" y="140" width="140" height="45" fill="#f8fafc" stroke="#0f172a" stroke-width="2" rx="4" />
  <text x="830.0" y="167.5" fill="#0f172a" font-size="15" font-weight="bold" text-anchor="middle">Terminal</text>
  <!-- Attributes side: right -->
  <text x="920" y="93" fill="#0f172a" font-size="14">• id</text>
  <text x="920" y="115" fill="#0f172a" font-size="14">• user_id (FK)</text>
  <text x="920" y="137" fill="#0f172a" font-size="14">• nama_terminal</text>
  <text x="920" y="159" fill="#0f172a" font-size="14">• lokasi</text>
  <text x="920" y="181" fill="#0f172a" font-size="14">• tipe</text>
  <text x="920" y="203" fill="#0f172a" font-size="14">• created_at</text>
  <text x="920" y="225" fill="#0f172a" font-size="14">• updated_at</text>
  
  <!-- Entity: Jalur -->
  <rect x="200" y="460" width="140" height="45" fill="#f8fafc" stroke="#0f172a" stroke-width="2" rx="4" />
  <text x="270.0" y="487.5" fill="#0f172a" font-size="15" font-weight="bold" text-anchor="middle">Jalur</text>
  <!-- Attributes side: left -->
  <text x="40" y="397" fill="#0f172a" font-size="14">• id</text>
  <text x="40" y="419" fill="#0f172a" font-size="14">• gunung_id</text>
  <text x="40" y="441" fill="#0f172a" font-size="14">• user_id (FK)</text>
  <text x="40" y="463" fill="#0f172a" font-size="14">• nama_jalur</text>
  <text x="40" y="485" fill="#0f172a" font-size="14">• biaya_simaksi_weekday</text>
  <text x="40" y="507" fill="#0f172a" font-size="14">• biaya_simaksi_weekend</text>
  <text x="40" y="529" fill="#0f172a" font-size="14">• estimasi_jam</text>
  <text x="40" y="551" fill="#0f172a" font-size="14">• tingkat_kesulitan</text>
  <text x="40" y="573" fill="#0f172a" font-size="14">• created_at</text>
  <text x="40" y="595" fill="#0f172a" font-size="14">• updated_at</text>
  
  <!-- Entity: Biaya -->
  <rect x="760" y="460" width="140" height="45" fill="#f8fafc" stroke="#0f172a" stroke-width="2" rx="4" />
  <text x="830.0" y="487.5" fill="#0f172a" font-size="15" font-weight="bold" text-anchor="middle">Biaya</text>
  <!-- Attributes side: right -->
  <text x="920" y="349" fill="#0f172a" font-size="14">• id</text>
  <text x="920" y="371" fill="#0f172a" font-size="14">• jalur_id</text>
  <text x="920" y="393" fill="#0f172a" font-size="14">• start_terminal_id</text>
  <text x="920" y="415" fill="#0f172a" font-size="14">• end_terminal_id</text>
  <text x="920" y="437" fill="#0f172a" font-size="14">• user_id (FK)</text>
  <text x="920" y="459" fill="#0f172a" font-size="14">• nama_armada</text>
  <text x="920" y="481" fill="#0f172a" font-size="14">• estimasi_perjalanan</text>
  <text x="920" y="503" fill="#0f172a" font-size="14">• harga_pp</text>
  <text x="920" y="525" fill="#0f172a" font-size="14">• harga_weekend</text>
  <text x="920" y="547" fill="#0f172a" font-size="14">• start_date</text>
  <text x="920" y="569" fill="#0f172a" font-size="14">• end_date</text>
  <text x="920" y="591" fill="#0f172a" font-size="14">• harga_periode</text>
  <text x="920" y="613" fill="#0f172a" font-size="14">• created_at</text>
  <text x="920" y="635" fill="#0f172a" font-size="14">• updated_at</text>
  
  <!-- Entity: SubCriteria -->
  <rect x="200" y="780" width="140" height="45" fill="#f8fafc" stroke="#0f172a" stroke-width="2" rx="4" />
  <text x="270.0" y="807.5" fill="#0f172a" font-size="15" font-weight="bold" text-anchor="middle">SubCriteria</text>
  <!-- Attributes side: left -->
  <text x="40" y="745" fill="#0f172a" font-size="14">• id</text>
  <text x="40" y="767" fill="#0f172a" font-size="14">• kriteria_id</text>
  <text x="40" y="789" fill="#0f172a" font-size="14">• nama_sub</text>
  <text x="40" y="811" fill="#0f172a" font-size="14">• bobot</text>
  <text x="40" y="833" fill="#0f172a" font-size="14">• created_at</text>
  <text x="40" y="855" fill="#0f172a" font-size="14">• updated_at</text>
  
  <!-- Entity: User -->
  <rect x="760" y="780" width="140" height="45" fill="#f8fafc" stroke="#0f172a" stroke-width="2" rx="4" />
  <text x="830.0" y="807.5" fill="#0f172a" font-size="15" font-weight="bold" text-anchor="middle">User</text>
  <!-- Attributes side: right -->
  <text x="920" y="741" fill="#0f172a" font-size="14">• id</text>
  <text x="920" y="763" fill="#0f172a" font-size="14">• role_id (FK)</text>
  <text x="920" y="785" fill="#0f172a" font-size="14">• name</text>
  <text x="920" y="807" fill="#0f172a" font-size="14">• username</text>
  <text x="920" y="829" fill="#0f172a" font-size="14">• password</text>
  <text x="920" y="851" fill="#0f172a" font-size="14">• remember_token</text>
  <text x="920" y="873" fill="#0f172a" font-size="14">• created_at</text>
  <text x="920" y="895" fill="#0f172a" font-size="14">• updated_at</text>
  
  <!-- Entity: Kriteria -->
  <rect x="200" y="1100" width="140" height="45" fill="#f8fafc" stroke="#0f172a" stroke-width="2" rx="4" />
  <text x="270.0" y="1127.5" fill="#0f172a" font-size="15" font-weight="bold" text-anchor="middle">Kriteria</text>
  <!-- Attributes side: left -->
  <text x="40" y="1041" fill="#0f172a" font-size="14">• id</text>
  <text x="40" y="1063" fill="#0f172a" font-size="14">• user_id (FK)</text>
  <text x="40" y="1085" fill="#0f172a" font-size="14">• kode_kriteria</text>
  <text x="40" y="1107" fill="#0f172a" font-size="14">• nama_kriteria</text>
  <text x="40" y="1129" fill="#0f172a" font-size="14">• tipe</text>
  <text x="40" y="1151" fill="#0f172a" font-size="14">• bobot</text>
  <text x="40" y="1173" fill="#0f172a" font-size="14">• created_at</text>
  <text x="40" y="1195" fill="#0f172a" font-size="14">• updated_at</text>
  
  <!-- Entity: ActivityLog -->
  <rect x="760" y="1100" width="140" height="45" fill="#f8fafc" stroke="#0f172a" stroke-width="2" rx="4" />
  <text x="830.0" y="1127.5" fill="#0f172a" font-size="15" font-weight="bold" text-anchor="middle">ActivityLog</text>
  <!-- Attributes side: right -->
  <text x="920" y="1047" fill="#0f172a" font-size="14">• id</text>
  <text x="920" y="1069" fill="#0f172a" font-size="14">• user_id</text>
  <text x="920" y="1091" fill="#0f172a" font-size="14">• activity</text>
  <text x="920" y="1113" fill="#0f172a" font-size="14">• created_at</text>
  <text x="920" y="1135" fill="#0f172a" font-size="14">• updated_at</text>
  
  <!-- Entity: Penilaian -->
  <rect x="480" y="780" width="140" height="45" fill="#f8fafc" stroke="#0f172a" stroke-width="2" rx="4" />
  <text x="550.0" y="807.5" fill="#0f172a" font-size="15" font-weight="bold" text-anchor="middle">Penilaian</text>
  <!-- Attributes side: right -->
  <text x="640" y="741" fill="#0f172a" font-size="14">• id</text>
  <text x="640" y="763" fill="#0f172a" font-size="14">• jalur_id</text>
  <text x="640" y="785" fill="#0f172a" font-size="14">• biaya_id</text>
  <text x="640" y="807" fill="#0f172a" font-size="14">• kriteria_id</text>
  <text x="640" y="829" fill="#0f172a" font-size="14">• user_id (FK)</text>
  <text x="640" y="851" fill="#0f172a" font-size="14">• nilai</text>
  <text x="640" y="873" fill="#0f172a" font-size="14">• created_at</text>
  <text x="640" y="895" fill="#0f172a" font-size="14">• updated_at</text>

  <!-- Entity: Role [NEW] -->
  <rect x="480" y="1100" width="140" height="45" fill="#f8fafc" stroke="#0f172a" stroke-width="2" rx="4" />
  <text x="550.0" y="1127.5" fill="#0f172a" font-size="15" font-weight="bold" text-anchor="middle">Role</text>
  <!-- Attributes side: right of Role -->
  <text x="640" y="1069" fill="#0f172a" font-size="14">• id</text>
  <text x="640" y="1091" fill="#0f172a" font-size="14">• name</text>
  <text x="640" y="1113" fill="#0f172a" font-size="14">• created_at</text>
  <text x="640" y="1135" fill="#0f172a" font-size="14">• updated_at</text>

  <!-- Entity: RolePermission (Pivot) [NEW] -->
  <rect x="480" y="1300" width="140" height="45" fill="#f8fafc" stroke="#0f172a" stroke-width="2" rx="4" />
  <text x="550.0" y="1327.5" fill="#0f172a" font-size="15" font-weight="bold" text-anchor="middle">RolePermission</text>
  <!-- Attributes side: right of RolePermission -->
  <text x="640" y="1283" fill="#0f172a" font-size="14">• role_id (FK)</text>
  <text x="640" y="1305" fill="#0f172a" font-size="14">• permission_id (FK)</text>

  <!-- Entity: Permission [NEW] -->
  <rect x="200" y="1300" width="140" height="45" fill="#f8fafc" stroke="#0f172a" stroke-width="2" rx="4" />
  <text x="270.0" y="1327.5" fill="#0f172a" font-size="15" font-weight="bold" text-anchor="middle">Permission</text>
  <!-- Attributes side: left of Permission -->
  <text x="40" y="1247" fill="#0f172a" font-size="14">• id</text>
  <text x="40" y="1269" fill="#0f172a" font-size="14">• name</text>
  <text x="40" y="1291" fill="#0f172a" font-size="14">• label</text>
  <text x="40" y="1313" fill="#0f172a" font-size="14">• created_at</text>
  <text x="40" y="1335" fill="#0f172a" font-size="14">• updated_at</text>
  
  <!-- Relationship: Memiliki (Gunung - Jalur) -->
  <polygon points="270,275.0 320.0,300 270,325.0 220.0,300" fill="#ffffff" stroke="#0f172a" stroke-width="2" />
  <text x="270" y="304" fill="#0f172a" font-size="14" font-weight="bold" text-anchor="middle">Memiliki</text>
  <line x1="270" y1="185" x2="270" y2="275" stroke="#334155" stroke-width="1.2" />
  <line x1="270" y1="325" x2="270" y2="460" stroke="#334155" stroke-width="1.2" />
  <text x="280" y="205" fill="#0f172a" font-size="14" font-weight="bold">1</text>
  <text x="280" y="440" fill="#0f172a" font-size="14" font-weight="bold">N</text>
  
  <!-- Relationship: Memiliki (Terminal - Biaya) -->
  <polygon points="830,275.0 880.0,300 830,325.0 780.0,300" fill="#ffffff" stroke="#0f172a" stroke-width="2" />
  <text x="830" y="304" fill="#0f172a" font-size="14" font-weight="bold" text-anchor="middle">Memiliki</text>
  <line x1="830" y1="185" x2="830" y2="275" stroke="#334155" stroke-width="1.2" />
  <line x1="830" y1="325" x2="830" y2="460" stroke="#334155" stroke-width="1.2" />
  <text x="840" y="205" fill="#0f172a" font-size="14" font-weight="bold">1</text>
  <text x="840" y="440" fill="#0f172a" font-size="14" font-weight="bold">N</text>
  
  <!-- Relationship: Memiliki (User - ActivityLog) -->
  <polygon points="830,915.0 880.0,940 830,965.0 780.0,940" fill="#ffffff" stroke="#0f172a" stroke-width="2" />
  <text x="830" y="944" fill="#0f172a" font-size="14" font-weight="bold" text-anchor="middle">Memiliki</text>
  <line x1="830" y1="825" x2="830" y2="915" stroke="#334155" stroke-width="1.2" />
  <line x1="830" y1="965" x2="830" y2="1100" stroke="#334155" stroke-width="1.2" />
  <text x="840" y="845" fill="#0f172a" font-size="14" font-weight="bold">1</text>
  <text x="840" y="1080" fill="#0f172a" font-size="14" font-weight="bold">N</text>
  
  <!-- Relationship: Memiliki (SubCriteria - Kriteria) -->
  <polygon points="270,915.0 320.0,940 270,965.0 220.0,940" fill="#ffffff" stroke="#0f172a" stroke-width="2" />
  <text x="270" y="944" fill="#0f172a" font-size="14" font-weight="bold" text-anchor="middle">Memiliki</text>
  <line x1="270" y1="825" x2="270" y2="915" stroke="#334155" stroke-width="1.2" />
  <line x1="270" y1="965" x2="270" y2="1100" stroke="#334155" stroke-width="1.2" />
  <text x="320" y="845" fill="#0f172a" font-size="14" font-weight="bold">N</text>
  <text x="320" y="845" fill="#0f172a" font-size="14" font-weight="bold">N</text>
  <text x="280" y="1080" fill="#0f172a" font-size="14" font-weight="bold">1</text>
  
  <!-- Relationship: Memiliki (Jalur - Biaya) -->
  <polygon points="550,457.0 600.0,482 550,507.0 500.0,482" fill="#ffffff" stroke="#0f172a" stroke-width="2" />
  <text x="550" y="486" fill="#0f172a" font-size="14" font-weight="bold" text-anchor="middle">Memiliki</text>
  <line x1="340" y1="482" x2="500" y2="482" stroke="#334155" stroke-width="1.2" />
  <line x1="600" y1="482" x2="760" y2="482" stroke="#334155" stroke-width="1.2" />
  <text x="355" y="470" fill="#0f172a" font-size="14" font-weight="bold">1</text>
  <text x="745" y="470" fill="#0f172a" font-size="14" font-weight="bold">N</text>
  
  <!-- Relationship: Memiliki (Jalur - Penilaian) -->
  <polygon points="390,595.0 440.0,620 390,645.0 340.0,620" fill="#ffffff" stroke="#0f172a" stroke-width="2" />
  <text x="390" y="624" fill="#0f172a" font-size="14" font-weight="bold" text-anchor="middle">Memiliki</text>
  <line x1="270" y1="505" x2="270" y2="620" stroke="#334155" stroke-width="1.2" />
  <line x1="270" y1="620" x2="340" y2="620" stroke="#334155" stroke-width="1.2" />
  <line x1="440" y1="620" x2="550" y2="620" stroke="#334155" stroke-width="1.2" />
  <line x1="550" y1="620" x2="550" y2="780" stroke="#334155" stroke-width="1.2" />
  <text x="280" y="535" fill="#0f172a" font-size="14" font-weight="bold">1</text>
  <text x="560" y="755" fill="#0f172a" font-size="14" font-weight="bold">N</text>
  
  <!-- Relationship: Memiliki (Biaya - Penilaian) -->
  <polygon points="710,595.0 760.0,620 710,645.0 660.0,620" fill="#ffffff" stroke="#0f172a" stroke-width="2" />
  <text x="710" y="624" fill="#0f172a" font-size="14" font-weight="bold" text-anchor="middle">Memiliki</text>
  <line x1="830" y1="505" x2="830" y2="620" stroke="#334155" stroke-width="1.2" />
  <line x1="830" y1="620" x2="760" y2="620" stroke="#334155" stroke-width="1.2" />
  <line x1="660" y1="620" x2="550" y2="620" stroke="#334155" stroke-width="1.2" />
  <text x="810" y="535" fill="#0f172a" font-size="14" font-weight="bold">1</text>
  <text x="535" y="755" fill="#0f172a" font-size="14" font-weight="bold">N</text>
  
  <!-- Relationship: Memiliki (Kriteria - Penilaian) -->
  <polygon points="390,915.0 440.0,940 390,965.0 340.0,940" fill="#ffffff" stroke="#0f172a" stroke-width="2" />
  <text x="390" y="944" fill="#0f172a" font-size="14" font-weight="bold" text-anchor="middle">Memiliki</text>
  <line x1="340" y1="1122" x2="390" y2="1122" stroke="#334155" stroke-width="1.2" />
  <line x1="390" y1="1122" x2="390" y2="965" stroke="#334155" stroke-width="1.2" />
  <line x1="390" y1="915" x2="390" y2="802" stroke="#334155" stroke-width="1.2" />
  <line x1="390" y1="802" x2="480" y2="802" stroke="#334155" stroke-width="1.2" />
  <text x="355" y="1110" fill="#0f172a" font-size="14" font-weight="bold">1</text>
  <text x="460" y="790" fill="#0f172a" font-size="14" font-weight="bold">N</text>

  <!-- Relationship: Memiliki (Role - User) [NEW - Routed to prevent overlapping x=640 text] -->
  <polygon points="740,937.5 790.0,962.5 740,987.5 690.0,962.5" fill="#ffffff" stroke="#0f172a" stroke-width="2" />
  <text x="740" y="966.5" fill="#0f172a" font-size="14" font-weight="bold" text-anchor="middle">Memiliki</text>
  <line x1="760" y1="802.5" x2="740" y2="802.5" stroke="#334155" stroke-width="1.2" />
  <line x1="740" y1="802.5" x2="740" y2="937.5" stroke="#334155" stroke-width="1.2" />
  <line x1="740" y1="987.5" x2="740" y2="1050" stroke="#334155" stroke-width="1.2" />
  <line x1="740" y1="1050" x2="550" y2="1050" stroke="#334155" stroke-width="1.2" />
  <line x1="550" y1="1050" x2="550" y2="1100" stroke="#334155" stroke-width="1.2" />
  <text x="750" y="795" fill="#0f172a" font-size="14" font-weight="bold">N</text>
  <text x="560" y="1095" fill="#0f172a" font-size="14" font-weight="bold">1</text>

  <!-- Relationship: Memiliki (Role - RolePermission) [NEW] -->
  <polygon points="550,1175.0 600.0,1200 550,1225.0 500.0,1200" fill="#ffffff" stroke="#0f172a" stroke-width="2" />
  <text x="550" y="1204" fill="#0f172a" font-size="14" font-weight="bold" text-anchor="middle">Memiliki</text>
  <line x1="550" y1="1145" x2="550" y2="1175" stroke="#334155" stroke-width="1.2" />
  <line x1="550" y1="1225" x2="550" y2="1300" stroke="#334155" stroke-width="1.2" />
  <text x="560" y="1165" fill="#0f172a" font-size="14" font-weight="bold">1</text>
  <text x="560" y="1290" fill="#0f172a" font-size="14" font-weight="bold">N</text>

  <!-- Relationship: Memiliki (Permission - RolePermission) [NEW] -->
  <polygon points="390,1297.5 440.0,1322.5 390,1347.5 340.0,1322.5" fill="#ffffff" stroke="#0f172a" stroke-width="2" />
  <text x="390" y="1326" fill="#0f172a" font-size="14" font-weight="bold" text-anchor="middle">Memiliki</text>
  <line x1="340" y1="1322.5" x2="390" y2="1322.5" stroke="#334155" stroke-width="1.2" />
  <line x1="440" y1="1322.5" x2="480" y2="1322.5" stroke="#334155" stroke-width="1.2" />
  <text x="355" y="1310" fill="#0f172a" font-size="14" font-weight="bold">1</text>
  <text x="460" y="1310" fill="#0f172a" font-size="14" font-weight="bold">N</text>

</svg>